<svg xmlns="http://www.w3.org/2000/svg" width="140" height="30" viewBox="0 0 140 30" fill="none">
  <rect width="30" height="30" rx="9" fill="#FE375B"/>
  <circle cx="15" cy="15" r="6" fill="white"/>
  <path d="M48 21V9h8.4c2 0 3.5.5 4.5 1.4 1 .9 1.5 2.1 1.5 3.6s-.5 2.7-1.5 3.6c-1 .9-2.5 1.4-4.5 1.4H52v2H48Zm4-5.4h4c1.6 0 2.4-.5 2.4-1.6s-.8-1.6-2.4-1.6h-4v3.2Zm15.5 5.7c-1.6 0-2.9-.4-3.8-1.3-.9-.9-1.4-2-1.4-3.5 0-1.5.5-2.7 1.4-3.5.9-.9 2.2-1.3 3.8-1.3s2.9.4 3.8 1.3c.9.9 1.4 2 1.4 3.5 0 1.5-.5 2.7-1.4 3.5-.9.9-2.2 1.3-3.8 1.3Zm0-3c1.2 0 1.8-.6 1.8-1.8s-.6-1.8-1.8-1.8-1.8.6-1.8 1.8.6 1.8 1.8 1.8Zm7.6 2.7V12h3.8v1.3c.6-1 1.7-1.5 3.1-1.5.3 0 .6 0 .9.1v3.3a5.6 5.6 0 0 0-1.3-.1c-.8 0-1.4.2-1.9.5-.5.4-.8.9-.8 1.6V21h-3.8Zm13.3.3c-1.3 0-2.3-.3-3-.9-.7-.6-1.1-1.5-1.1-2.7V15h-1.6v-3h1.6V9.5h3.8V12h2.5v3h-2.5v2.7c0 .6.3.9 1 .9.4 0 .7 0 1-.1V21c-.5.2-1 .3-1.7.3Zm7.5 0c-1.4 0-2.6-.2-3.6-.7V18c1 .5 2.1.8 3.2.8.8 0 1.2-.2 1.2-.5 0-.2-.2-.4-.7-.5l-1.4-.3c-1-.2-1.8-.6-2.3-1.1-.5-.5-.8-1.2-.8-2 0-1 .4-1.8 1.2-2.4.8-.6 1.9-.9 3.3-.9 1.1 0 2.2.2 3.2.6v2.7a6.6 6.6 0 0 0-2.8-.7c-.7 0-1 .2-1 .5 0 .2.2.4.7.5l1.5.3c1 .2 1.7.6 2.2 1 .5.5.7 1.1.7 1.9 0 1-.4 1.8-1.2 2.4-.8.6-1.9.9-3.4.9Z" fill="white"/>
</svg>
