<svg width="68" height="68" viewBox="0 0 68 68" fill="none" xmlns="http://www.w3.org/2000/svg">
<path d="M25.409 11C29.0176 11.0001 32.1259 12.2518 34.3924 14.3438L34.3933 14.3447C37.4216 17.1405 38.9465 21.4367 38.1484 26.2554L37.1318 32.3882C40.5956 30.4608 43.2679 26.9952 43.9234 23.0394L45.7911 11.7659H67L65.8424 18.746C64.4506 27.1484 56.5227 33.9642 48.1156 33.9995H63.3188L59.5087 57H42.5957C34.1646 56.9998 28.4608 50.1698 29.8563 41.7446L30.8719 35.6089C27.4058 37.5358 24.7322 41.0039 24.0766 44.9616L22.2099 56.2341H1L2.15668 49.254C3.55209 40.8299 11.5185 34.0006 19.9498 34.0005H4.68681L8.49601 11H25.409Z" fill="#FE375B"></path>
</svg>