<svg width="232" height="68" viewBox="0 0 232 68" fill="none" xmlns="http://www.w3.org/2000/svg">
<path d="M25.409 11C29.0176 11.0001 32.1259 12.2518 34.3924 14.3438L34.3933 14.3447C37.4216 17.1405 38.9465 21.4367 38.1484 26.2554L37.1318 32.3882C40.5956 30.4608 43.2679 26.9952 43.9234 23.0394L45.7911 11.7659H67L65.8424 18.746C64.4506 27.1484 56.5227 33.9642 48.1156 33.9995H63.3188L59.5087 57H42.5957C34.1646 56.9998 28.4608 50.1698 29.8563 41.7446L30.8719 35.6089C27.4058 37.5358 24.7322 41.0039 24.0766 44.9616L22.2099 56.2341H1L2.15668 49.254C3.55209 40.8299 11.5185 34.0006 19.9498 34.0005H4.68681L8.49601 11H25.409Z" fill="#FE375B"></path>
<path d="M220.398 47.7C217.832 47.7 215.55 47.1556 213.554 46.0667C211.584 44.9778 210.041 43.487 208.926 41.5944C207.837 39.6759 207.293 37.5111 207.293 35.1C207.293 32.7926 207.824 30.7315 208.887 28.9167C209.976 27.0759 211.441 25.6241 213.282 24.5611C215.123 23.4982 217.158 22.9667 219.387 22.9667C221.669 22.9667 223.704 23.4982 225.493 24.5611C227.308 25.5982 228.747 27.0111 229.81 28.8C230.873 30.5889 231.404 32.6241 231.404 34.9056V37.1222H216.898C216.25 37.1222 215.615 37.0833 214.993 37.0056C214.371 36.9278 213.748 36.837 213.126 36.7333C213.437 38.4185 214.254 39.8056 215.576 40.8944C216.898 41.9833 218.558 42.5278 220.554 42.5278C222.032 42.5278 223.367 42.2167 224.56 41.5944C225.752 40.9722 226.737 40.1945 227.515 39.2611L228.915 44.9778C227.748 45.8852 226.439 46.5593 224.987 47C223.535 47.4667 222.006 47.7 220.398 47.7ZM212.971 32.9611C214.293 32.7019 215.602 32.5722 216.898 32.5722H221.915C222.615 32.5722 223.276 32.5982 223.898 32.65C224.521 32.7019 225.117 32.7796 225.687 32.8833C225.298 31.3796 224.534 30.1741 223.393 29.2667C222.278 28.3593 220.93 27.9056 219.348 27.9056C217.793 27.9056 216.445 28.3722 215.304 29.3056C214.163 30.2389 213.385 31.4574 212.971 32.9611Z" fill="white"></path>
<path d="M198.933 47V16H205.039V47H198.933Z" fill="white"></path>
<path d="M184.983 47.5444C183.48 47.5444 182.08 47.2722 180.783 46.7278C179.513 46.1833 178.411 45.4444 177.478 44.5111V47H172.15V16H178.256V25.4556C179.163 24.7296 180.174 24.1593 181.289 23.7445C182.43 23.3296 183.661 23.1222 184.983 23.1222C187.161 23.1222 189.131 23.6796 190.894 24.7945C192.657 25.8833 194.057 27.3482 195.094 29.1889C196.157 31.0296 196.689 33.0778 196.689 35.3333C196.689 37.563 196.157 39.6111 195.094 41.4778C194.057 43.3185 192.657 44.7963 190.894 45.9111C189.131 47 187.161 47.5444 184.983 47.5444ZM184.244 42.1389C185.489 42.1389 186.604 41.8278 187.589 41.2056C188.6 40.5833 189.404 39.7667 190 38.7556C190.596 37.7185 190.894 36.5778 190.894 35.3333C190.894 34.0889 190.596 32.9611 190 31.95C189.404 30.913 188.6 30.0833 187.589 29.4611C186.604 28.8389 185.502 28.5278 184.283 28.5278C183.039 28.5278 181.911 28.8389 180.9 29.4611C179.915 30.0833 179.124 30.913 178.528 31.95C177.931 32.9611 177.633 34.0889 177.633 35.3333C177.633 36.5778 177.931 37.7185 178.528 38.7556C179.124 39.7667 179.915 40.5833 180.9 41.2056C181.911 41.8278 183.026 42.1389 184.244 42.1389Z" fill="white"></path>
<path d="M132.007 47V23.6667H137.49V26.4278C138.346 25.287 139.396 24.4315 140.64 23.8611C141.885 23.2648 143.194 22.9667 144.568 22.9667C145.994 22.9667 147.329 23.2778 148.574 23.9C149.818 24.4963 150.855 25.3778 151.685 26.5445C152.592 25.3778 153.733 24.4963 155.107 23.9C156.481 23.2778 157.959 22.9667 159.54 22.9667C161.226 22.9667 162.794 23.3556 164.246 24.1333C165.698 24.9111 166.878 26.0389 167.785 27.5167C168.692 28.9944 169.146 30.7704 169.146 32.8444V47H163.002V33.7C163.002 32.2222 162.574 30.9907 161.718 30.0056C160.889 29.0204 159.761 28.5278 158.335 28.5278C157.531 28.5278 156.766 28.7093 156.04 29.0722C155.315 29.4352 154.731 29.9926 154.29 30.7445C153.85 31.4963 153.629 32.4556 153.629 33.6222V47H147.485V33.7C147.485 32.7148 147.29 31.8333 146.902 31.0556C146.513 30.2519 145.968 29.6296 145.268 29.1889C144.568 28.7222 143.752 28.4889 142.818 28.4889C142.04 28.4889 141.289 28.6833 140.563 29.0722C139.837 29.4352 139.24 29.9926 138.774 30.7445C138.333 31.4963 138.113 32.4556 138.113 33.6222V47H132.007Z" fill="white"></path>
<path d="M115.607 47.5445C113.481 47.5445 111.537 47 109.774 45.9111C108.011 44.7963 106.598 43.3185 105.535 41.4778C104.498 39.6111 103.979 37.563 103.979 35.3333C103.979 33.1037 104.498 31.0685 105.535 29.2278C106.598 27.3611 108.011 25.8833 109.774 24.7945C111.537 23.6796 113.481 23.1222 115.607 23.1222C117.137 23.1222 118.55 23.3945 119.846 23.9389C121.142 24.4833 122.244 25.2482 123.152 26.2333V23.6667H128.479V47H123.152V44.4333C122.244 45.3926 121.142 46.1574 119.846 46.7278C118.55 47.2722 117.137 47.5445 115.607 47.5445ZM116.346 42.1389C117.591 42.1389 118.705 41.8278 119.691 41.2056C120.702 40.5833 121.505 39.7667 122.102 38.7556C122.698 37.7185 122.996 36.5778 122.996 35.3333C122.996 34.0889 122.698 32.9611 122.102 31.95C121.505 30.913 120.702 30.0833 119.691 29.4611C118.705 28.8389 117.604 28.5278 116.385 28.5278C115.141 28.5278 114.013 28.8389 113.002 29.4611C112.016 30.0833 111.226 30.913 110.629 31.95C110.033 32.9611 109.735 34.0889 109.735 35.3333C109.735 36.5778 110.033 37.7185 110.629 38.7556C111.226 39.7667 112.016 40.5833 113.002 41.2056C114.013 41.8278 115.128 42.1389 116.346 42.1389Z" fill="white"></path>
<path d="M95.1167 47.7C92.8093 47.7 90.6963 47.1426 88.7778 46.0278C86.8852 44.913 85.3815 43.4222 84.2667 41.5556C83.1519 39.663 82.5944 37.5889 82.5944 35.3333C82.5944 33.0519 83.1519 30.9778 84.2667 29.1111C85.3815 27.2444 86.8852 25.7537 88.7778 24.6389C90.6963 23.5241 92.8093 22.9667 95.1167 22.9667C96.75 22.9667 98.2926 23.2389 99.7444 23.7833C101.196 24.3278 102.48 25.1185 103.594 26.1556L101.961 32.6111C101.313 31.4963 100.419 30.537 99.2778 29.7333C98.137 28.9037 96.8148 28.4889 95.3111 28.4889C94.0148 28.4889 92.8481 28.8 91.8111 29.4222C90.8 30.0445 89.9963 30.8741 89.4 31.9111C88.8037 32.9222 88.5056 34.063 88.5056 35.3333C88.5056 36.5778 88.8037 37.7185 89.4 38.7556C89.9963 39.7926 90.8 40.6222 91.8111 41.2445C92.8481 41.8667 94.0148 42.1778 95.3111 42.1778C96.8148 42.1778 98.137 41.7759 99.2778 40.9722C100.419 40.1426 101.313 39.1704 101.961 38.0556L103.594 44.5111C102.48 45.5482 101.196 46.3389 99.7444 46.8833C98.2926 47.4278 96.75 47.7 95.1167 47.7Z" fill="white"></path>
</svg>